<svg xmlns="http://www.w3.org/2000/svg" viewBox="0 0 31.13 31.13"><defs><style>.cls-1{fill:#e03528;}.cls-2{fill:#fff;}</style></defs><g id="Layer_2" data-name="Layer 2"><g id="Layer_1-2" data-name="Layer 1"><path class="cls-1" d="M5.58,23.45C1.86,19.73,0,17.87,0,15.56s1.86-4.17,5.58-7.89L7.67,5.58C11.39,1.86,13.25,0,15.56,0s4.17,1.86,7.89,5.58l2.1,2.09c3.72,3.72,5.58,5.58,5.58,7.89s-1.86,4.17-5.58,7.89l-2.1,2.1c-3.72,3.72-5.58,5.58-7.89,5.58s-4.17-1.86-7.89-5.58Z"/><path class="cls-2" d="M19,21.51V15.79a1.56,1.56,0,0,1,1.76-1.69c1.91,0,1.3,2.51.65,2.79,0,0,3-1,1.93-3.84a2.16,2.16,0,0,0-.82-1l-6.14-4.1v3.16L19,12.84a3.54,3.54,0,0,0-2.71,3.5c0,2.91-.1,7.09-.1,7.09Z"/><path class="cls-2" d="M15.19,10.54V7.91H11.32a3.37,3.37,0,0,0-1,.16A3.1,3.1,0,0,0,7.9,11.13s-.06,1.18,1.67,2.36l5.62,3.63V13.86l-4-2.45a2.15,2.15,0,0,1-.93-1.58,1.54,1.54,0,0,1,1-1.33,1,1,0,0,1,.83.18C12.56,9,15.19,10.54,15.19,10.54Z"/><path class="cls-2" d="M15.19,20.05,10.71,17.4a1.46,1.46,0,0,1-.42-.36c-.39-.48-1.08-1.58-.26-2.41,0,0-2.13.5-2.13,2.11v.74a1.27,1.27,0,0,0,0,.28A3,3,0,0,0,9.2,19.62c1.08.62,6,3.81,6,3.81Z"/></g></g></svg>